<svg xmlns="http://www.w3.org/2000/svg" viewBox="0 0 512 512" role="img" aria-label="Tracce"><defs><linearGradient id="g" x1="256" y1="70" x2="256" y2="450" gradientUnits="userSpaceOnUse"><stop stop-color="#9BE72D"/><stop offset="0.48" stop-color="#42D28C"/><stop offset="1" stop-color="#09AFC3"/></linearGradient><style>.bg{fill:#fffcf5}.foot{fill:#fffcf5}@media(prefers-color-scheme:dark){.bg{fill:#0d111b}.foot{fill:#fff}}</style></defs><rect class="bg" width="512" height="512"/><path fill="url(#g)" d="M256 447C214 404 88 302 88 181C88 112 138 70 199 70C226 70 245 82 256 98C267 82 286 70 313 70C374 70 424 112 424 181C424 302 298 404 256 447Z"/><ellipse class="foot" cx="214" cy="180" rx="20" ry="30"/><ellipse class="foot" cx="251" cy="170" rx="16" ry="25"/><ellipse class="foot" cx="285" cy="178" rx="14" ry="22"/><ellipse class="foot" cx="313" cy="195" rx="12" ry="19"/><ellipse class="foot" cx="335" cy="219" rx="10" ry="16"/><path class="foot" d="M250 221C209 221 190 252 202 287C208 305 224 320 224 344C224 380 244 402 271 402C299 402 316 380 316 343C316 319 334 302 340 278C349 245 318 221 284 221Z"/></svg>