<svg xmlns="http://www.w3.org/2000/svg" viewBox="0 0 1100 1100" role="img" aria-label="Tracce">
  <defs>
    <linearGradient id="heartGradient" x1="490" y1="80" x2="500" y2="921" gradientUnits="userSpaceOnUse">
      <stop offset="0" stop-color="#9BE637"/>
      <stop offset="0.48" stop-color="#35CD8C"/>
      <stop offset="1" stop-color="#08AFC0"/>
    </linearGradient>
    <radialGradient id="heartGlow" cx="0" cy="0" r="1" gradientTransform="translate(344 246) rotate(42) scale(470 330)" gradientUnits="userSpaceOnUse">
      <stop stop-color="#E7FF9D" stop-opacity="0.33"/>
      <stop offset="1" stop-color="#E7FF9D" stop-opacity="0"/>
    </radialGradient>
    <filter id="shadow" x="-20%" y="-20%" width="140%" height="150%">
      <feDropShadow dx="0" dy="22" stdDeviation="18" flood-color="#24483F" flood-opacity="0.22"/>
    </filter>
  </defs>
  <rect x="20" y="20" width="1060" height="1060" rx="230" fill="#FDFCF7"/>
  <g transform="translate(59 59)" filter="url(#shadow)">
    <path d="M 264 88 L 231 100 L 189 125 L 160 151 L 128 193 L 109 234 L 96 287 L 94 336 L 103 398 L 122 454 L 146 504 L 208 600 L 305 718 L 494 920 L 638 767 L 707 689 L 775 603 L 828 522 L 865 447 L 885 382 L 890 351 L 891 305 L 882 252 L 860 198 L 831 157 L 800 128 L 779 113 L 750 98 L 717 87 L 684 81 L 649 80 L 598 88 L 560 102 L 542 112 L 515 132 L 496 151 L 490 151 L 446 113 L 412 96 L 387 88 L 337 80 L 293 82 Z" fill="url(#heartGradient)"/>
    <path d="M 264 88 L 231 100 L 189 125 L 160 151 L 128 193 L 109 234 L 96 287 L 94 336 L 103 398 L 122 454 L 146 504 L 208 600 L 305 718 L 494 920 L 638 767 L 707 689 L 775 603 L 828 522 L 865 447 L 885 382 L 890 351 L 891 305 L 882 252 L 860 198 L 831 157 L 800 128 L 779 113 L 750 98 L 717 87 L 684 81 L 649 80 L 598 88 L 560 102 L 542 112 L 515 132 L 496 151 L 490 151 L 446 113 L 412 96 L 387 88 L 337 80 L 293 82 Z" fill="url(#heartGlow)"/>
    <path d="M 371 225 L 359 229 L 353 233 L 340 250 L 334 268 L 334 294 L 343 319 L 357 335 L 370 342 L 386 344 L 402 339 L 415 328 L 421 318 L 426 303 L 427 279 L 421 257 L 410 240 L 401 232 L 384 225 Z" fill="#FFFDF8"/>
    <path d="M 470 228 L 458 234 L 449 246 L 445 259 L 444 276 L 447 291 L 453 303 L 465 313 L 480 315 L 489 311 L 498 302 L 498 299 L 500 298 L 505 286 L 506 263 L 501 246 L 494 236 L 486 230 L 480 228 Z" fill="#FFFDF8"/>
    <path d="M 558 254 L 548 254 L 539 258 L 529 268 L 523 281 L 521 302 L 524 314 L 530 323 L 541 329 L 551 329 L 559 326 L 560 323 L 562 324 L 574 309 L 578 296 L 578 277 L 575 268 L 567 258 Z" fill="#FFFDF8"/>
    <path d="M 618 301 L 607 301 L 598 305 L 589 315 L 582 332 L 583 347 L 587 355 L 595 362 L 608 363 L 618 359 L 627 350 L 634 334 L 634 320 L 630 310 Z" fill="#FFFDF8"/>
    <path d="M 465 346 L 433 353 L 412 364 L 396 377 L 385 391 L 376 409 L 371 427 L 370 448 L 373 468 L 379 486 L 405 534 L 416 564 L 417 591 L 405 639 L 402 663 L 404 683 L 408 697 L 421 720 L 438 735 L 456 743 L 465 745 L 483 745 L 503 740 L 521 730 L 533 719 L 546 701 L 559 670 L 571 627 L 602 565 L 611 543 L 623 497 L 624 468 L 620 442 L 610 417 L 595 396 L 578 380 L 549 362 L 527 353 L 490 346 Z" fill="#FFFDF8"/>
    <path d="M 654 355 L 640 358 L 632 365 L 626 376 L 624 385 L 625 395 L 628 401 L 636 407 L 644 408 L 654 405 L 662 398 L 668 387 L 670 380 L 669 368 L 663 359 Z" fill="#FFFDF8"/>
  </g>
</svg>
